<svg width="23" height="21" viewBox="0 0 23 21" fill="none" xmlns="http://www.w3.org/2000/svg">
<path d="M20.7742 0.112793H2.22581C1.00161 0.112793 0 1.11441 0 2.3386C0 3.56279 1.00161 4.56441 2.22581 4.56441H20.7742C21.9984 4.56441 23 3.56279 23 2.3386C23 1.11441 21.9984 0.112793 20.7742 0.112793Z" fill="#1D2F6F"/>
<path d="M20.7742 8.27417H2.22581C1.00161 8.27417 0 9.27578 0 10.5C0 11.7242 1.00161 12.7258 2.22581 12.7258H20.7742C21.9984 12.7258 23 11.7242 23 10.5C23 9.27578 21.9984 8.27417 20.7742 8.27417Z" fill="#1D2F6F"/>
<path d="M20.7742 16.4353H2.22581C1.00161 16.4353 0 17.4369 0 18.6611C0 19.8853 1.00161 20.8869 2.22581 20.8869H20.7742C21.9984 20.8869 23 19.8853 23 18.6611C23 17.4369 21.9984 16.4353 20.7742 16.4353Z" fill="#1D2F6F"/>
</svg>
